<svg width="24" height="24" viewBox="0 0 24 24" fill="none" xmlns="http://www.w3.org/2000/svg">
<path d="M1 3.44446H5.88889M23 3.44446H10.7778M1 12H15.6667M23 12H20.5556M1 20.5556H3.44444M23 20.5556H8.33333" stroke="#B09880" stroke-width="2" stroke-linecap="round"/>
<path d="M8.33312 5.88889C9.68315 5.88889 10.7776 4.79447 10.7776 3.44444C10.7776 2.09441 9.68315 1 8.33312 1C6.98309 1 5.88867 2.09441 5.88867 3.44444C5.88867 4.79447 6.98309 5.88889 8.33312 5.88889Z" stroke="#B09880" stroke-width="2" stroke-linecap="round"/>
<path d="M18.1105 14.4444C19.4605 14.4444 20.5549 13.35 20.5549 12C20.5549 10.65 19.4605 9.55554 18.1105 9.55554C16.7604 9.55554 15.666 10.65 15.666 12C15.666 13.35 16.7604 14.4444 18.1105 14.4444Z" stroke="#B09880" stroke-width="2" stroke-linecap="round"/>
<path d="M5.88976 23C7.23979 23 8.3342 21.9056 8.3342 20.5555C8.3342 19.2055 7.23979 18.1111 5.88976 18.1111C4.53973 18.1111 3.44531 19.2055 3.44531 20.5555C3.44531 21.9056 4.53973 23 5.88976 23Z" stroke="#B09880" stroke-width="2" stroke-linecap="round"/>
</svg>
