<svg width="30" height="30" viewBox="0 0 30 30" fill="none" xmlns="http://www.w3.org/2000/svg">
<path d="M8.59643 -1.52588e-05H21.0464C25.7893 -1.52588e-05 29.6429 3.85356 29.6429 8.59641V21.0464C29.6429 23.3263 28.7372 25.5129 27.125 27.125C25.5129 28.7371 23.3263 29.6428 21.0464 29.6428H8.59643C3.85357 29.6428 0 25.7893 0 21.0464V8.59641C0 6.3165 0.905693 4.12996 2.51784 2.51782C4.12998 0.905677 6.31651 -1.52588e-05 8.59643 -1.52588e-05ZM8.3 2.96427C6.88488 2.96427 5.52772 3.52642 4.52708 4.52707C3.52644 5.52771 2.96429 6.88486 2.96429 8.29998V21.3428C2.96429 24.2923 5.35054 26.6786 8.3 26.6786H21.3429C22.758 26.6786 24.1151 26.1164 25.1158 25.1158C26.1164 24.1151 26.6786 22.758 26.6786 21.3428V8.29998C26.6786 5.35052 24.2923 2.96427 21.3429 2.96427H8.3ZM22.6027 5.18748C23.094 5.18748 23.5653 5.38268 23.9127 5.73012C24.2602 6.07757 24.4554 6.5488 24.4554 7.04016C24.4554 7.53152 24.2602 8.00276 23.9127 8.3502C23.5653 8.69765 23.094 8.89284 22.6027 8.89284C22.1113 8.89284 21.6401 8.69765 21.2926 8.3502C20.9452 8.00276 20.75 7.53152 20.75 7.04016C20.75 6.5488 20.9452 6.07757 21.2926 5.73012C21.6401 5.38268 22.1113 5.18748 22.6027 5.18748ZM14.8214 7.4107C16.7869 7.4107 18.6718 8.19147 20.0616 9.58125C21.4514 10.971 22.2321 12.856 22.2321 14.8214C22.2321 16.7869 21.4514 18.6718 20.0616 20.0616C18.6718 21.4514 16.7869 22.2321 14.8214 22.2321C12.856 22.2321 10.971 21.4514 9.58126 20.0616C8.19148 18.6718 7.41071 16.7869 7.41071 14.8214C7.41071 12.856 8.19148 10.971 9.58126 9.58125C10.971 8.19147 12.856 7.4107 14.8214 7.4107ZM14.8214 10.375C13.6422 10.375 12.5112 10.8434 11.6773 11.6773C10.8435 12.5112 10.375 13.6421 10.375 14.8214C10.375 16.0007 10.8435 17.1316 11.6773 17.9655C12.5112 18.7994 13.6422 19.2678 14.8214 19.2678C16.0007 19.2678 17.1317 18.7994 17.9655 17.9655C18.7994 17.1316 19.2679 16.0007 19.2679 14.8214C19.2679 13.6421 18.7994 12.5112 17.9655 11.6773C17.1317 10.8434 16.0007 10.375 14.8214 10.375Z" fill="#B09880"/>
</svg>
